<svg xmlns="http://www.w3.org/2000/svg" viewBox="0 0 396.15 669.59"><defs><style>.cls-1{fill:#fff;}</style></defs><g id="Layer_2" data-name="Layer 2"><g id="Layer_1-2" data-name="Layer 1"><path class="cls-1" d="M321.87,12.38v76.4a24.72,24.72,0,0,1-7.25,17.51L206.83,214.08a12.37,12.37,0,0,1-17.51,0L81.53,106.29a24.77,24.77,0,0,1-7.25-17.51V12.38A12.38,12.38,0,0,1,86.66,0H309.49A12.38,12.38,0,0,1,321.87,12.38ZM375,138.74,206.83,306.93a12.39,12.39,0,0,1-17.51,0L21.13,138.74A12.38,12.38,0,0,0,0,147.5v356A24.77,24.77,0,0,0,7.25,521L152.18,665.94a12.38,12.38,0,0,0,21.14-8.75V494.13a12.41,12.41,0,0,0-3.63-8.76L56.77,372.45A24.76,24.76,0,0,1,49.52,355v-36.2A12.38,12.38,0,0,1,70.65,310L189.32,428.67a12.39,12.39,0,0,0,17.51,0L325.5,310a12.38,12.38,0,0,1,21.13,8.75V355a24.76,24.76,0,0,1-7.25,17.5L226.46,485.37a12.4,12.4,0,0,0-3.62,8.76V657.19A12.38,12.38,0,0,0,244,665.94L388.9,521a24.77,24.77,0,0,0,7.25-17.51v-356A12.38,12.38,0,0,0,375,138.74Z"/></g></g></svg>